# xmcd CD database file
#
# Track frame offsets:
#	150
#	23021
#	36481
#	58321
#	79043
#	114008
#	131589
#	152079
#	169595
#	183287
#	206324
#	229241
#
# Disc length: 3335 seconds
#
# Revision: 7
# Processed by: cddbd v1.5.1PL0 Copyright (c) Steve Scherf et al.
# Submitted via: CDex 1.60beta1-cs1
#
DISCID=930d050c
DTITLE=Chicago - If You Leave Me Now
DYEAR=1997
DGENRE=Rock
TTITLE0=Questions 67 and 68
TTITLE1=Make Me Smile
TTITLE2=25 Or 6 To 4
TTITLE3=Does Anybody Really Know What Time It Is?
TTITLE4=Beginnings
TTITLE5=Saturday In The Park
TTITLE6=Whishing You Were Here
TTITLE7=If You Leave Me Now
TTITLE8=Baby What A Big Suprise
TTITLE9=Hard To Say I´m Sorry
TTITLE10=Love Me Tomorrow
TTITLE11=Hard Habit To Break
EXTD=YEAR: 1997
EXTT0=
EXTT1=
EXTT2=
EXTT3=
EXTT4=
EXTT5=
EXTT6=
EXTT7=
EXTT8=
EXTT9=
EXTT10=
EXTT11=
PLAYORDER=
